<?xml version="1.0" encoding="UTF-8"?>
<svg width="715px" height="575px" viewBox="0 0 715 575" version="1.1" xmlns="http://www.w3.org/2000/svg" xmlns:xlink="http://www.w3.org/1999/xlink">
    <!-- Generator: Sketch 48.2 (47327) - http://www.bohemiancoding.com/sketch -->
    <title>Shape</title>
    <desc>Created with Sketch.</desc>
    <defs></defs>
    <g id="Artboard" stroke="none" stroke-width="1" fill="none" fill-rule="evenodd" transform="translate(-911.000000, -1275.000000)">
        <g id="oyster-logo" transform="translate(911.000000, 1275.000000)" fill="#FFFFFF" fill-rule="nonzero">
            <path d="M572.909816,574.850017 L142.043294,574.850017 C120.545457,574.850017 99.928358,566.319693 84.7269871,551.12447 C69.5256164,535.929247 60.9855729,515.325237 60.9855729,493.840071 L60.9855729,480.257174 C60.9855729,480.257174 121.668185,480.257174 148.214071,480.257174 C152.799715,480.257174 156.934203,477.501223 158.690047,473.264182 C160.444953,469.036518 159.476049,464.162047 156.233553,460.91865 C113.600869,418.295159 15.3223695,320.027714 15.3223695,320.027714 C1.92280231,306.632296 -3.18152667,287.040674 1.97720358,268.817657 C45.7232354,113.781382 188.388386,0 357.43247,0 C526.443727,0 669.096683,113.734512 712.861476,268.742665 C718.104621,287.256278 712.758299,307.157238 698.923525,320.543283 C664.829008,353.577193 600.373019,418.91384 557.977635,460.824911 C554.685429,464.049561 553.672443,468.942779 555.407652,473.207939 C557.152239,477.4731 561.297984,480.257174 565.912702,480.257174 C592.813136,480.257174 653.967536,480.257174 653.967536,480.257174 L653.967536,493.840071 C653.967536,515.325237 645.432181,535.929247 630.227998,551.12447 C615.033192,566.319693 594.407651,574.850017 572.909816,574.850017 Z M627.507939,499.483208 L87.4507967,499.483208 C87.4507967,528.786272 111.21566,552.539942 140.531315,552.539942 C234.99048,552.539942 479.968257,552.539942 574.429295,552.539942 C603.740264,552.539942 627.507939,528.786272 627.507939,499.483208 Z M424.082326,272.379768 L454.485069,221.104092 C457.855125,223.475708 461.137953,225.978563 464.32605,228.593903 C465.389684,229.465684 466.442067,230.356212 467.484129,231.24674 C470.361763,233.730845 473.156858,236.308689 475.860971,238.980275 C477.135644,240.236389 478.401879,241.520623 479.639975,242.823606 C479.846324,243.048581 480.062052,243.273558 480.27778,243.498533 C484.28283,247.75432 488.072153,252.225708 491.617608,256.875204 C492.70563,258.30005 493.765516,259.734269 494.80664,261.187235 C494.956713,261.402836 495.106785,261.618437 495.256857,261.834041 C495.791489,262.574584 496.307362,263.333876 496.823235,264.083795 C497.414144,264.955576 497.995675,265.827355 498.577203,266.699136 C499.59019,268.245843 500.584418,269.820671 501.550508,271.395501 C502.338386,272.698485 503.116886,274.020215 503.876626,275.341948 C504.204909,275.913759 504.533191,276.494947 504.852095,277.066758 C504.955271,277.244866 505.049064,277.422971 505.142859,277.591702 C505.246035,277.769807 505.33983,277.938539 505.433626,278.116644 C505.686872,278.585345 505.940118,279.044668 506.193366,279.513369 C506.69048,280.450767 507.187594,281.388164 507.675327,282.334937 C508.041128,283.056734 508.39755,283.769156 508.753972,284.500326 C509.776337,286.553228 510.742427,288.624878 511.670999,290.72465 C512.19625,291.896398 512.702745,293.077519 513.199859,294.258641 C513.734491,295.542875 514.250364,296.836485 514.756858,298.130095 C515.169555,299.208101 515.572873,300.295483 515.976195,301.382866 C516.43579,302.648353 516.876627,303.923214 517.308083,305.20745 C517.692645,306.322955 518.049064,307.447831 518.405486,308.57271 C519.137087,310.916206 519.821792,313.278449 520.450219,315.640692 C520.581532,316.137513 520.712846,316.624959 520.834778,317.112407 C521.519483,319.812113 522.14791,322.530569 522.701301,325.258395 C523.226555,327.836242 523.68615,330.432833 524.089469,333.0388 C524.183264,333.657483 524.277059,334.266791 524.361474,334.885474 C524.455269,335.551027 524.549065,336.216581 524.633482,336.882131 C524.699137,337.378953 524.764795,337.885148 524.83045,338.391343 C525.121215,340.800458 525.365082,343.218944 525.552673,345.63743 C525.777782,348.477747 525.927854,351.336812 526.002888,354.195876 C526.031028,355.330128 526.059165,356.473753 526.068546,357.617378 C526.087305,360.298338 526.040406,362.969921 525.937232,365.641507 C525.909095,366.260188 525.880955,366.878872 525.852818,367.497555 C525.843437,367.72253 525.834059,367.947505 525.8153,368.172482 C525.78716,368.669303 525.759023,369.175498 525.730883,369.681693 C525.721504,369.794179 525.712124,369.906668 525.712124,370.019156 C525.693365,370.187888 525.683986,370.35662 525.674606,370.525351 C525.637087,371.069042 525.599569,371.612733 525.552673,372.156422 C525.468256,373.281301 525.365082,374.406179 525.261909,375.531057 C525.233769,375.793528 525.205632,376.055999 525.177492,376.31847 C525.121215,376.88091 525.064937,377.452722 524.999282,378.024536 C524.867969,379.149414 524.727277,380.264917 524.586583,381.389795 C524.483409,382.092844 524.389614,382.805265 524.286438,383.517687 C524.155127,384.408218 524.014433,385.308119 523.86436,386.198647 C523.733047,387.023558 523.592355,387.848467 523.442283,388.673378 L523.414145,388.851483 C523.386005,389.038964 523.348487,389.217069 523.32035,389.395175 C523.198415,390.051354 523.076482,390.707531 522.945169,391.363711 C522.757578,392.319855 522.560609,393.266629 522.36364,394.222776 C522.269845,394.635229 522.185428,395.047684 522.091633,395.469513 C521.829008,396.650635 521.557001,397.831756 521.266237,399.012878 C521.041128,399.940904 520.806641,400.868928 520.562773,401.787576 C520.356424,402.565618 520.140696,403.353033 519.924968,404.131073 C519.662341,405.077846 519.390336,406.024617 519.10895,406.962014 C519.052673,407.168242 518.987017,407.365096 518.93074,407.571324 C518.865082,407.768176 518.808805,407.974404 518.743149,408.171258 C518.639973,408.508722 518.5368,408.846185 518.433624,409.174275 C518.105341,410.252284 517.7583,411.311543 517.401878,412.380176 C517.195531,412.98011 516.989181,413.58942 516.782832,414.189354 C516.557723,414.836158 516.323236,415.482964 516.088746,416.129768 C515.873018,416.748452 515.64791,417.357759 515.413423,417.967069 C515.235213,418.445142 515.057001,418.923214 514.878791,419.391915 C514.700581,419.841864 514.531749,420.291816 514.353537,420.732392 C513.922081,421.819774 513.481245,422.897783 513.031027,423.975792 C512.824678,424.472611 512.60895,424.978806 512.393222,425.475627 C512.055559,426.272416 511.708517,427.059831 511.352095,427.847244 C510.87374,428.915879 510.376627,429.984512 509.879513,431.043771 C509.044736,432.787333 508.1912,434.512146 507.309527,436.218209 C506.718618,437.361837 506.108949,438.496086 505.489903,439.620965 C504.833336,440.830209 504.158012,442.030077 503.463927,443.220575 C503.360754,443.408053 503.248199,443.595534 503.135645,443.783013 C502.957435,444.092353 502.779223,444.401696 502.591635,444.711037 C502.45094,444.954761 502.300868,445.198485 502.150795,445.442206 C501.709959,446.182752 501.269122,446.913921 500.809526,447.645093 C500.471863,448.188785 500.134203,448.732476 499.787162,449.276167 C498.961763,450.569774 498.117608,451.854011 497.254694,453.128872 C496.72944,453.906913 496.204189,454.666206 495.669557,455.434872 C495.20058,456.109798 494.722226,456.775351 494.23449,457.450278 C494.131316,457.590887 494.02814,457.740871 493.915589,457.890854 C493.86869,457.956473 493.812412,458.031465 493.756135,458.106455 C493.727998,458.143951 493.699858,458.181447 493.681099,458.218944 C493.652962,458.25644 493.624822,458.284563 493.596685,458.322056 C493.48413,458.500164 493.362198,458.678269 493.259021,458.865747 C493.155848,459.053228 493.071431,459.250083 492.996395,459.446935 C492.799426,459.981252 492.799426,460.131235 492.715011,460.693675 L492.715011,460.909276 C492.649353,461.096755 492.583698,461.293609 492.51804,461.490464 C492.499281,461.565456 492.471143,461.640446 492.452384,461.724812 C492.433625,461.781057 492.414866,461.8373 492.396107,461.902919 L492.386726,461.959162 C492.358589,462.043528 492.33983,462.118521 492.321071,462.202886 C492.302312,462.296626 492.274172,462.399738 492.255413,462.49348 C492.208517,462.680959 492.180379,462.868437 492.142861,463.055918 C492.114721,463.234023 492.086584,463.412128 492.067825,463.599609 C492.002167,464.068308 491.97403,464.54638 491.97403,465.024455 C491.97403,465.061951 491.97403,465.108821 491.97403,465.146317 C491.97403,465.258803 491.97403,465.371291 491.97403,465.48378 C491.983408,465.755624 492.002167,466.027471 492.030307,466.299315 C492.049066,466.52429 492.077203,466.749267 492.114721,466.964869 C492.124102,467.049234 492.142861,467.124227 492.152239,467.199217 C492.152239,467.227339 492.16162,467.255462 492.170999,467.283582 L492.170999,467.330452 C492.189758,467.433567 492.217897,467.53668 492.236656,467.649169 C492.292931,467.921015 492.358589,468.19286 492.443004,468.455331 C492.461763,468.54907 492.489903,468.642812 492.51804,468.727177 C492.555558,468.849039 492.593076,468.961525 492.639975,469.083387 C492.639975,469.092761 492.649353,469.11151 492.649353,469.120884 C492.658734,469.13963 492.658734,469.149006 492.668112,469.167753 C492.70563,469.280242 492.752529,469.392728 492.790047,469.51459 C492.818185,469.589582 492.855703,469.664575 492.88384,469.739567 C492.977636,469.973915 493.09019,470.208266 493.202744,470.442614 C493.343438,470.742584 493.502889,471.033175 493.671721,471.323768 C493.709239,471.389387 493.756135,471.46438 493.793653,471.529996 C493.831171,471.586242 493.859311,471.633111 493.896829,471.679981 L493.924967,471.736224 C494.272008,472.279915 494.665948,472.78611 495.097407,473.264182 C495.266236,473.451663 495.435067,473.629768 495.61328,473.7985 C495.669557,473.864119 495.725834,473.920362 495.791489,473.976605 C495.838386,474.023475 495.885285,474.060971 495.932181,474.10784 L495.969699,474.145337 C496.52309,474.642158 497.12338,475.09211 497.751807,475.485816 C498.295818,475.82328 498.867968,476.123247 499.458877,476.366971 C499.693366,476.470086 499.927853,476.554452 500.16234,476.638817 C500.593799,476.7888 501.025254,476.910662 501.466094,477.013777 C502.338386,477.210629 503.22944,477.313744 504.111113,477.323117 C504.486295,477.323117 504.861476,477.313744 505.227276,477.276248 C505.72439,477.238752 506.212123,477.163759 506.699859,477.060647 C507.384563,476.920035 508.069267,476.713807 508.716454,476.451336 C508.960321,476.357597 509.204187,476.254482 509.448054,476.141996 C509.504332,476.113873 509.560609,476.08575 509.616886,476.05763 C509.851373,475.935768 510.085862,475.813906 510.320349,475.682671 C510.432904,475.607678 510.554836,475.542062 510.676772,475.467069 C510.723668,475.429573 510.779945,475.40145 510.826844,475.363954 C510.883119,475.326458 510.948777,475.288964 511.005054,475.251468 L511.042572,475.223345 C511.117608,475.176476 511.183264,475.120233 511.2583,475.073361 C511.295818,475.04524 511.333336,475.017118 511.370854,474.988995 C511.44589,474.932752 511.511546,474.885882 511.586582,474.829639 C511.605341,474.81089 511.633481,474.792143 511.65224,474.773394 L512.046178,474.464053 L512.749641,473.835996 C554.338388,432.262389 595.927132,390.698158 637.515876,349.133927 C643.912703,342.740871 650.309527,336.357189 656.696973,329.964134 C659.895386,326.767606 663.093799,323.571079 666.29221,320.374551 C667.839829,318.827846 669.378069,317.290512 670.925688,315.743804 C671.863641,314.806407 672.801591,313.869009 673.730161,312.940985 C673.908373,312.762878 674.086583,312.584773 674.264793,312.406668 C674.480523,312.181693 674.705632,311.956716 674.92136,311.722368 C675.155847,311.478644 675.390334,311.225546 675.615442,310.972449 C675.765515,310.803717 675.915587,310.625612 676.06566,310.45688 C676.121937,310.391262 676.178214,310.316269 676.24387,310.250653 C676.497118,309.94131 676.750364,309.641343 676.994232,309.332002 C677.38817,308.835181 677.763351,308.328986 678.138532,307.804044 C678.232327,307.663433 678.335501,307.522824 678.429296,307.382215 C678.72006,306.960386 679.001446,306.529181 679.273451,306.097978 C679.826842,305.226197 680.333337,304.335669 680.811692,303.426395 C681.168114,302.723345 681.515155,302.001549 681.834057,301.279753 C681.955992,300.989159 682.077925,300.698566 682.19986,300.407972 C682.406207,299.911151 682.593797,299.414329 682.77201,298.908134 C682.968979,298.364443 683.147188,297.811379 683.325401,297.248941 C683.381678,297.052086 683.437955,296.845858 683.503611,296.649006 L683.531748,296.545891 C683.775616,295.664737 683.991346,294.774209 684.178934,293.874308 C684.244592,293.546218 684.310248,293.218128 684.366525,292.899414 C684.507219,292.074503 684.619773,291.249591 684.713566,290.424683 C684.807361,289.562275 684.863639,288.69987 684.891778,287.837463 C684.929297,286.825073 684.919916,285.812683 684.873019,284.800293 C684.863639,284.481579 684.844879,284.172236 684.816742,283.853522 C684.807361,283.712911 684.797983,283.572302 684.788602,283.431693 C684.779224,283.366074 684.769843,283.291082 684.769843,283.225465 L684.760465,283.12235 C684.601014,281.42566 684.319628,279.738344 683.925688,278.07915 C683.794375,277.507336 683.644302,276.935523 683.475473,276.363711 C683.447333,276.279345 683.428574,276.185606 683.400437,276.10124 C683.381678,276.054368 683.372297,276.007498 683.353538,275.960629 C683.297261,275.77315 683.240984,275.576296 683.184707,275.388817 C683.062774,275.013858 682.95022,274.629525 682.828287,274.254566 C682.34993,272.717232 681.862197,271.189273 681.365083,269.661315 C681.130596,268.958266 680.905487,268.245843 680.670998,267.542794 C678.945169,262.387105 677.106784,257.268911 675.165228,252.197588 C674.330451,250.004077 673.476915,247.819939 672.60462,245.654548 C671.994952,244.145337 671.385283,242.645501 670.756856,241.145663 C669.865805,239.008395 668.955991,236.880503 668.0368,234.752608 C667.417751,233.337138 666.789324,231.93104 666.160897,230.51557 C666.001446,230.168731 665.841995,229.812521 665.682542,229.465684 C664.725832,227.356539 663.750364,225.247391 662.756136,223.156994 C662.277781,222.153978 661.799427,221.141588 661.311691,220.138572 C661.170999,219.838605 661.020927,219.548011 660.880233,219.248044 C660.045458,217.541978 659.210681,215.845288 658.357146,214.148599 C658.010104,213.464299 657.663063,212.78937 657.316022,212.114443 C656.321791,210.155282 655.308805,208.214869 654.277059,206.274455 C653.967536,205.693267 653.648632,205.102707 653.329728,204.512146 C652.7013,203.340398 652.063495,202.16865 651.416309,200.996902 C650.806641,199.900146 650.196972,198.80339 649.587304,197.706635 C649.108949,196.87235 648.639973,196.028692 648.15224,195.194407 C647.392499,193.85393 646.614,192.522824 645.8355,191.191717 C645.47908,190.591783 645.11328,189.982476 644.756858,189.373166 C644.559886,189.045076 644.362917,188.707612 644.156568,188.379525 C644.006495,188.126428 643.847045,187.863954 643.696972,187.610857 C643.593799,187.432752 643.490622,187.26402 643.387449,187.095288 C642.918472,186.317249 642.449498,185.548581 641.971144,184.779915 C640.976916,183.158218 639.963927,181.545891 638.941562,179.933567 C637.44084,177.561951 635.91198,175.209081 634.345602,172.874959 C632.948054,170.765813 631.512989,168.675415 630.068544,166.594392 C629.168112,165.300782 628.258301,164.007174 627.339108,162.722938 C626.485574,161.532443 625.622657,160.351321 624.759743,159.160824 C623.540407,157.50163 622.311692,155.85181 621.064216,154.220737 C620.707796,153.752038 620.360753,153.292713 620.004333,152.833387 C618.906929,151.408542 617.800147,149.983696 616.683985,148.5776 C616.308806,148.099528 615.933625,147.630829 615.558443,147.162128 C614.770565,146.177861 613.982688,145.202968 613.185429,144.228074 C612.932183,143.918731 612.678934,143.60939 612.425688,143.309423 C610.887448,141.444002 609.330451,139.597327 607.764073,137.760026 C606.873019,136.738263 605.991346,135.716497 605.090911,134.694734 C603.58081,132.979295 602.051951,131.282605 600.504332,129.595288 C599.979079,129.014101 599.444447,128.44229 598.909815,127.861102 C598.243869,127.139306 597.568546,126.426884 596.89322,125.714461 C590.599569,119.058934 584.024535,112.665879 577.186872,106.572791 C575.68615,105.232311 574.176049,103.910581 572.64719,102.598224 C571.652962,101.735816 570.649353,100.882785 569.636367,100.039126 C568.548344,99.1298493 567.45094,98.2299481 566.353539,97.3300468 C565.406208,96.5613785 564.458876,95.8020862 563.511548,95.0427938 C563.108229,94.7240799 562.714289,94.4147369 562.320349,94.1053964 C560.810248,92.9149015 559.281389,91.73378 557.752529,90.5807788 C554.46032,88.0873004 551.121215,85.6688144 547.735212,83.3159449 C547.106784,82.8753665 546.468979,82.4347905 545.831171,81.9942121 C545.831171,81.9285956 545.831171,81.8536032 545.831171,81.7879843 C545.831171,68.5050544 535.044737,57.7156005 521.753972,57.7156005 C517.411259,57.7156005 513.34055,58.8686017 509.832614,60.8746345 C508.435068,60.1809586 507.028141,59.4966586 505.621214,58.8217321 C503.313855,57.7249764 500.987736,56.6469676 498.65224,55.606455 C497.958157,55.2877411 497.254694,54.9783981 496.55123,54.6690576 C494.187594,53.6379209 491.814576,52.6349045 489.422803,51.6600109 C487.546902,50.9007185 485.66162,50.1507996 483.766958,49.4196275 C481.497116,48.547849 479.217897,47.7041908 476.929297,46.8886529 C473.042428,45.4919301 469.131173,44.1795732 465.195529,42.9515821 C460.903466,41.601729 456.581387,40.3549886 452.235863,39.192614 C449.416382,38.4333216 446.585645,37.7208989 443.746467,37.0365994 C439.117681,35.9398435 434.466382,34.9368276 429.794449,34.0275514 C427.915732,33.6619661 426.034201,33.3151289 424.14986,32.9870396 C417.541994,31.815292 410.900365,30.8497718 404.236222,30.0623574 C390.309528,28.4219106 376.289973,27.5970003 362.267608,27.4938866 C358.405125,27.4657646 354.540769,27.4938866 350.679223,27.5782525 C347.749064,27.6344963 344.818907,27.7282362 341.890623,27.8594719 C338.792572,27.9907076 335.694519,28.1594393 332.60022,28.3750408 C328.631749,28.6375124 324.666093,28.9656018 320.707939,29.3593088 C313.533553,30.0717313 306.379802,30.9997556 299.26169,32.1433814 C296.690769,32.5558363 294.123596,32.9964135 291.562053,33.4651127 C285.63983,34.5618684 279.744809,35.8086078 273.889181,37.2147049 C266.146396,39.0707545 258.471143,41.2173961 250.886871,43.6452556 C243.322298,46.063744 235.848705,48.7728237 228.49048,51.7631235 C223.354259,53.8441463 218.274318,56.0751537 213.258157,58.4373992 C212.086654,58.9810903 210.917968,59.5435283 209.753971,60.1059662 C209.01299,60.4715523 208.273884,60.8371383 207.535718,61.2027219 C207.167102,61.3808294 206.799426,61.5683079 206.43175,61.746413 C202.611474,59.206065 198.023957,57.7156005 193.091273,57.7156005 C179.79957,57.7156005 169.007507,68.5050544 169.007507,81.7879843 C169.007507,82.500407 169.039398,83.2128298 169.101302,83.9158791 C168.776771,84.1408538 168.453178,84.365831 168.130523,84.5908056 C161.475761,89.2402991 155.00296,94.1616394 148.728069,99.3079569 C144.221215,103.010679 139.81566,106.835262 135.515154,110.772335 C133.179657,112.918977 130.874173,115.093741 128.600581,117.296626 C126.935716,118.90895 125.288675,120.540023 123.657578,122.189843 C122.657723,123.202233 121.664433,124.223996 120.677708,125.245762 C118.565442,127.439273 116.483192,129.651532 114.430957,131.901288 C112.709815,133.785459 111.00931,135.679003 109.32944,137.600668 C108.590334,138.444326 107.85592,139.29736 107.124318,140.150392 C106.433048,140.956554 105.746468,141.762716 105.062701,142.568878 C102.923235,145.109228 100.818473,147.677699 98.7493537,150.27429 C97.1051256,152.345942 95.4843464,154.426965 93.88514,156.526737 C93.0522397,157.614119 92.2259048,158.710875 91.4051979,159.817004 C90.5282137,160.998125 89.6568573,162.179247 88.7939423,163.369741 C88.3859337,163.932182 87.977925,164.49462 87.5727303,165.05706 C86.8636394,166.041327 86.1583003,167.03497 85.4585889,168.028611 C83.6080116,170.662701 81.7912008,173.315537 80.0081559,175.987121 C76.7853565,180.824095 73.6722973,185.726689 70.6661647,190.694898 C69.2470448,193.047765 67.8532497,195.400635 66.4819654,197.781627 C65.2382426,199.928269 64.0151544,202.093657 62.8117634,204.268422 C62.0595269,205.627648 61.3157318,206.996251 60.5794401,208.364851 C59.62742,210.12716 58.6875931,211.908218 57.7608976,213.689273 C57.106208,214.945387 56.4571458,216.210875 55.8155874,217.476362 C55.3925715,218.310647 54.9714315,219.154305 54.5531055,219.988587 C54.0888197,220.925987 53.6282859,221.854011 53.1705659,222.791408 C52.8957463,223.353846 52.6228023,223.916287 52.3498586,224.478725 C51.2627735,226.728482 50.1953853,228.987609 49.1476943,231.256113 C48.7997143,232.006032 48.4536106,232.765324 48.1103205,233.515243 C47.526915,234.799478 46.9510132,236.083714 46.3816769,237.377324 C45.1417058,240.180143 43.9336249,242.992338 42.7564966,245.82328 C41.8494979,248.007417 40.9603205,250.191555 40.0917779,252.385067 C39.4652268,253.978644 38.8471169,255.562847 38.2412008,257.156422 C37.9523118,257.915717 37.6652989,258.675009 37.3810998,259.434302 C35.9844907,263.174518 34.6441588,266.933486 33.3685456,270.711199 C33.036511,271.695468 32.709166,272.689109 32.386511,273.673378 C32.2111141,274.207696 32.0366551,274.742011 31.8640723,275.285702 L31.7496423,275.632539 C31.7074345,275.77315 31.6652268,275.904386 31.6248949,276.035621 C31.5770592,276.194979 31.5301618,276.354338 31.4832641,276.513693 L31.4551255,276.616809 C31.3209986,277.085507 31.1953132,277.554206 31.0799454,278.032278 C30.9655154,278.500979 30.8595268,278.979052 30.7638558,279.457124 C30.700075,279.766467 30.6419222,280.085181 30.5865831,280.403897 C30.5209267,280.778856 30.4618357,281.14444 30.4083723,281.528773 C30.3239568,282.119336 30.2536104,282.709897 30.1982713,283.300458 C30.1645053,283.666041 30.1354286,284.031627 30.112918,284.397213 C30.0810276,284.903408 30.0603926,285.400227 30.0491372,285.897049 C30.0425716,286.178269 30.0406957,286.459489 30.0406957,286.731333 C30.0406957,286.853195 30.0416336,286.965684 30.0425716,287.07817 C30.0435095,287.162536 30.0444475,287.246902 30.0453854,287.331268 C30.0472613,287.415633 30.0491372,287.490626 30.0510131,287.574992 C30.055703,287.799966 30.0632064,288.024944 30.0725859,288.249918 C30.1035385,288.971714 30.1551257,289.702886 30.2292239,290.424683 C30.4149381,292.243234 30.7385312,294.061786 31.1943754,295.833469 C31.3013018,296.255298 31.4157318,296.667753 31.5367273,297.080209 C31.7449524,297.783258 31.9738127,298.486305 32.2233074,299.179981 C32.3583724,299.55494 32.5000029,299.920524 32.6463233,300.295483 C32.7945196,300.66107 32.9502196,301.036029 33.1106091,301.401615 C33.2015902,301.60784 33.2944474,301.823444 33.3891805,302.029672 C33.6593105,302.610857 33.9453855,303.192044 34.2455297,303.773231 C34.5700607,304.391915 34.9124129,305.001223 35.271648,305.591783 C35.422658,305.844881 35.5755442,306.097978 35.732182,306.341702 C35.8869439,306.585426 36.0454576,306.82915 36.2058471,307.072872 C36.2761935,307.175987 36.3465398,307.2791 36.417824,307.382215 C36.5622685,307.597816 36.7104648,307.813417 36.8605368,308.019645 C37.070638,308.319612 37.2854286,308.610206 37.5049091,308.9008 C37.5696277,308.985165 37.6352844,309.069531 37.7000031,309.153897 C37.8463235,309.341375 37.9945195,309.528856 38.1455296,309.716335 C38.655775,310.353765 39.1866551,310.972449 39.7372324,311.572383 C39.9210709,311.769237 40.1067851,311.966092 40.2953133,312.162944 C40.3853565,312.256683 40.4763378,312.350425 40.568257,312.444164 C40.6282859,312.500407 40.6883147,312.566026 40.7483437,312.622269 C44.9437981,316.831187 49.1401906,321.030731 53.3365832,325.230275 C62.5650824,334.473019 71.7973335,343.706392 81.0314604,352.939762 C90.2665255,362.173133 99.5025283,371.39713 108.740407,380.630503 C116.298415,388.176557 123.857363,395.731987 131.417246,403.278041 C143.176337,415.023639 154.935429,426.769237 166.693583,438.505462 C175.932398,447.738833 185.170278,456.96283 194.407218,466.196203 C196.955631,468.736551 199.503105,471.286272 202.051518,473.835996 L202.188459,473.957858 L202.229728,473.995354 C202.352601,474.10784 202.474534,474.220329 202.598344,474.323444 C202.64993,474.370314 202.701518,474.417183 202.754044,474.464053 L202.782181,474.492176 C202.94351,474.623411 203.108588,474.76402 203.278357,474.885882 C203.495025,475.04524 203.719194,475.204599 203.947116,475.345207 C204.076554,475.429573 204.207867,475.513939 204.341056,475.598305 C204.69654,475.804533 205.064217,476.001385 205.440336,476.179492 C206.175688,476.516955 206.943871,476.7888 207.732687,476.976281 C208.745674,477.229378 209.789614,477.341864 210.831678,477.323117 C211.907507,477.304368 212.982398,477.135636 214.016022,476.835669 C214.735428,476.629442 215.43514,476.357597 216.103899,476.020134 C216.463135,475.832653 216.812052,475.635801 217.15159,475.4202 C217.770637,475.035867 218.354043,474.585915 218.893364,474.089094 C219.116597,473.882866 219.332325,473.667264 219.539613,473.44229 C219.754403,473.217313 219.96169,472.973591 220.158662,472.729867 C220.210247,472.664248 220.260898,472.598632 220.31061,472.533013 C220.337809,472.50489 220.364071,472.467396 220.390335,472.4299 L220.416597,472.392404 C220.531965,472.242419 220.643581,472.083061 220.751447,471.923705 C220.811475,471.829963 220.871504,471.745597 220.929656,471.651858 C221.180089,471.258152 221.408011,470.845696 221.611547,470.423867 C221.677203,470.292632 221.740047,470.152023 221.801014,470.011411 C221.805703,470.002038 221.812267,469.992665 221.816959,469.973915 C221.873236,469.852053 221.926697,469.720818 221.979223,469.589582 L222.001734,469.523966 C222.069267,469.355234 222.132109,469.177127 222.1912,469.008395 C222.289684,468.717801 222.376915,468.417834 222.452889,468.117867 C222.478213,468.024128 222.501664,467.921015 222.525112,467.8179 C222.540119,467.752284 222.555125,467.686665 222.568257,467.621046 C222.589829,467.527307 222.609526,467.424194 222.627347,467.321079 C222.638604,467.264836 222.64892,467.199217 222.660176,467.142974 L222.669555,467.086731 C222.706135,466.861753 222.737088,466.636779 222.761474,466.411804 C222.771793,466.308689 222.782109,466.196203 222.790552,466.093088 L222.795241,466.036845 C222.802744,465.933729 222.809311,465.830617 222.814938,465.736877 C222.819627,465.643136 222.822441,465.55877 222.825257,465.465031 L222.827132,465.408788 C222.82807,465.352542 222.829946,465.286926 222.829946,465.230683 L222.830884,465.165064 C222.831821,464.940089 222.826195,464.715112 222.814938,464.490137 C222.811187,464.405771 222.80556,464.321405 222.79993,464.23704 L222.795241,464.171421 C222.781171,463.993316 222.762412,463.805837 222.739902,463.618356 C222.727708,463.515243 222.712702,463.412128 222.697695,463.309016 L222.689252,463.252773 C222.630161,462.868437 222.553249,462.484104 222.458516,462.109145 C222.435068,462.015405 222.410682,461.93104 222.385355,461.8373 C222.363783,461.762308 222.341272,461.687316 222.318762,461.60295 C222.270925,461.443594 222.21934,461.284236 222.164938,461.124878 C222.150868,461.087381 222.136798,461.049885 222.122731,461.003016 L222.107723,460.965519 C222.097405,460.937399 222.097405,460.937399 222.087089,460.909276 C222.086151,460.834284 222.092716,460.759292 222.084275,460.693675 C222.028936,460.206227 221.978286,459.90626 221.808516,459.446935 C221.734418,459.250083 221.63312,459.062602 221.544952,458.865747 L221.204477,458.331432 C220.780522,457.750245 220.359382,457.169058 219.942931,456.578497 C219.110033,455.416122 218.291201,454.235001 217.488316,453.044506 C216.904909,452.182101 216.32807,451.31032 215.760609,450.429165 C215.440767,449.941717 215.122804,449.444898 214.808589,448.948077 C214.704477,448.779345 214.600363,448.619987 214.496252,448.451255 C214.392138,448.291897 214.288027,448.123166 214.183913,447.954434 C214.046035,447.738833 213.908156,447.513858 213.771216,447.288881 C213.633335,447.063906 213.497333,446.848305 213.36133,446.62333 L213.260032,446.454599 C213.157796,446.29524 213.056496,446.126509 212.95426,445.957777 C212.617535,445.395337 212.282688,444.842272 211.95159,444.279834 C211.289398,443.154956 210.640334,442.020704 210.004404,440.877079 C209.781171,440.483372 209.560754,440.08029 209.341272,439.686584 C208.72879,438.561705 208.129441,437.436827 207.542283,436.311951 C207.40628,436.049478 207.270278,435.787007 207.136151,435.524536 C206.946685,435.149576 206.759094,434.78399 206.571504,434.409031 C206.332327,433.930959 206.095962,433.452886 205.861475,432.974812 L205.783626,432.815456 C205.522874,432.281138 205.264939,431.756194 205.009815,431.212503 C204.576481,430.303228 204.15159,429.393951 203.735139,428.475301 C203.636655,428.259699 203.539108,428.044098 203.442499,427.828497 C203.156424,427.191067 202.875976,426.553636 202.598344,425.916206 C202.108733,424.791327 201.631316,423.657076 201.166094,422.522824 C200.366021,420.56366 199.602529,418.58575 198.877493,416.598467 C198.512628,415.595451 198.159022,414.60181 197.813856,413.58942 C197.751952,413.411315 197.690046,413.233208 197.629079,413.055103 C197.526844,412.755135 197.425543,412.455168 197.326121,412.155201 C197.104766,411.489648 196.889036,410.824095 196.676121,410.158542 C196.541056,409.736713 196.407867,409.314884 196.276554,408.893055 C195.862917,407.561951 195.466166,406.221471 195.085357,404.880992 C194.61263,403.212422 194.165226,401.534479 193.744086,399.847163 C193.506785,398.900392 193.277925,397.944245 193.057506,396.988098 C192.864288,396.153816 192.677636,395.319531 192.496612,394.475873 C192.35498,393.819693 192.217102,393.163516 192.082975,392.497963 C191.836294,391.279345 191.60462,390.060728 191.385141,388.84211 C191.342931,388.607759 191.3026,388.382785 191.262268,388.148434 C191.120639,387.342272 190.985574,386.53611 190.857074,385.729948 C190.792354,385.326866 190.728574,384.923786 190.667608,384.520704 C190.543797,383.714542 190.426553,382.899006 190.314937,382.092844 C190.087955,380.443022 189.886295,378.793202 189.708085,377.143381 C189.669629,376.787169 189.633049,376.430959 189.596468,376.074748 C189.480163,374.921747 189.374173,373.768749 189.281316,372.606374 C189.258805,372.325154 189.235357,372.034563 189.214722,371.753342 C189.167823,371.125285 189.12374,370.497228 189.082471,369.859798 C189.054331,369.428596 189.028069,368.988017 189.003683,368.547441 C188.96429,367.853765 188.929585,367.150719 188.898632,366.457043 C188.877059,365.97897 188.8583,365.491522 188.841417,365.01345 C188.799209,363.832329 188.769194,362.651207 188.752311,361.470086 C188.742932,360.879525 188.737305,360.298338 188.734492,359.707777 C188.733554,359.36094 188.733554,359.023475 188.733554,358.686011 L188.733554,358.498533 C188.73543,358.057957 188.737305,357.617378 188.741994,357.176802 C188.759816,355.48011 188.802023,353.792794 188.868619,352.096104 C188.896756,351.402428 188.928647,350.718128 188.96429,350.024455 C188.980233,349.715112 188.997116,349.405771 189.015875,349.087055 C189.062774,348.280893 189.11436,347.474731 189.172515,346.668569 C189.205341,346.209243 189.240984,345.740545 189.278502,345.281219 C189.311331,344.868764 189.345098,344.465684 189.380738,344.053228 C189.478287,342.947099 189.585212,341.840968 189.704331,340.744212 C189.797188,339.872434 189.897551,339.000653 190.004476,338.128872 C190.061691,337.669546 190.121719,337.200848 190.181748,336.741522 C190.248344,336.235327 190.316815,335.738506 190.38716,335.232311 C190.599136,333.732476 190.829872,332.242011 191.081245,330.751549 C191.279152,329.579801 191.489253,328.408053 191.711548,327.236305 C191.811908,326.711363 191.916019,326.177046 192.022009,325.652104 C192.107361,325.230275 192.193654,324.808446 192.281822,324.377241 C192.436584,323.646071 192.595097,322.905526 192.760177,322.164983 C192.983407,321.161966 193.216021,320.15895 193.458011,319.165309 C194.124894,316.409357 194.862124,313.672155 195.667824,310.963075 C195.889181,310.213156 196.115228,309.472611 196.346901,308.732068 C196.592644,307.944653 196.844015,307.157238 197.101012,306.379198 C197.187305,306.116728 197.273595,305.854254 197.360826,305.591783 C197.512774,305.132458 197.666597,304.682509 197.822297,304.223183 C198.212486,303.098305 198.612991,301.964053 199.026625,300.839175 C199.18983,300.398599 199.353972,299.95802 199.520926,299.517444 C199.826698,298.701906 200.139975,297.895744 200.458876,297.089582 C200.547045,296.864608 200.636151,296.63963 200.725254,296.414656 C201.005702,295.720982 201.29084,295.017933 201.580666,294.324257 C202.342282,292.486959 203.137665,290.668407 203.963999,288.868602 L254.54488,318.762227 C248.98283,332.007663 245.909165,346.55608 245.909165,361.816923 C245.909165,423.357108 295.90195,473.320428 357.478431,473.320428 C419.055846,473.320428 469.047693,423.357108 469.047693,361.816923 C469.047693,325.220899 451.366381,292.711933 424.082326,272.379768 Z M264.955197,299.526818 L214.353682,269.614443 C214.545962,269.314476 214.738242,269.005135 214.931462,268.705168 C215.851591,267.261576 216.79423,265.827355 217.757507,264.402512 C218.346541,263.540104 218.944015,262.677699 219.548994,261.824665 C220.288097,260.774779 221.039397,259.743642 221.801951,258.712503 C222.621721,257.606374 223.456497,256.509618 224.303466,255.422236 C225.531243,253.847408 226.787159,252.291327 228.070278,250.763369 C228.610537,250.116563 229.154547,249.479133 229.704187,248.841702 C229.923669,248.588605 230.145024,248.335507 230.366381,248.08241 C230.734057,247.660581 231.104549,247.238752 231.476914,246.826296 C231.999354,246.235735 232.525543,245.654548 233.055486,245.082737 C233.244952,244.876509 233.435357,244.670281 233.624823,244.464053 C233.739253,244.342191 233.853683,244.220329 233.968113,244.089094 C234.006569,244.051597 234.045025,244.014101 234.083481,243.967232 C234.121937,243.929735 234.164144,243.892239 234.200724,243.84537 C234.33954,243.676638 234.483986,243.51728 234.608734,243.339175 C234.732543,243.16107 234.844159,242.982964 234.941706,242.78611 C235.138675,242.401777 235.280307,241.989322 235.362845,241.567492 C235.404115,241.361265 235.431317,241.145663 235.442571,240.930062 C235.453827,240.714461 235.451014,240.49886 235.432255,240.283258 C235.394737,239.852053 235.298128,239.430224 235.144304,239.027144 C234.989542,238.614689 234.779441,238.239729 234.520566,237.892893 C234.391128,237.724161 234.238242,237.564803 234.096613,237.405444 L223.394591,226.662863 C222.980956,226.297277 222.89185,226.184791 222.41162,225.90357 C221.873236,225.59423 221.272946,225.397375 220.655776,225.322383 C220.03954,225.247391 219.409237,225.303636 218.812701,225.472368 C218.414072,225.59423 218.033264,225.762961 217.680595,225.978563 C217.504259,226.081675 217.342932,226.212911 217.174101,226.334773 L216.720132,226.756602 C216.267104,227.234677 215.815011,227.722122 215.366669,228.20957 C214.998055,228.61265 214.632254,229.006359 214.267392,229.409439 C213.781532,229.943756 213.298488,230.487447 212.818258,231.031138 C210.819484,233.280893 208.873236,235.586893 206.981389,237.930389 C204.894447,240.517606 202.875039,243.16107 200.924101,245.851402 C200.139037,246.929411 199.365226,248.026167 198.602672,249.122922 C198.423525,249.37602 198.245312,249.638491 198.067102,249.900962 C197.221072,251.128953 196.389108,252.375693 195.572153,253.622434 C194.576049,255.150392 193.600581,256.687723 192.647623,258.243804 C191.012773,260.906017 189.442644,263.615096 187.938171,266.352299 C187.303176,267.514674 186.679441,268.677046 186.067897,269.848794 C186.006931,269.970656 185.945962,270.083144 185.885933,270.205004 C185.642066,270.673705 185.401014,271.142404 185.160897,271.611102 C184.808229,272.304776 184.460247,272.998452 184.116019,273.692125 C183.727709,274.47954 183.344087,275.276329 182.966092,276.063744 C182.190406,277.694815 181.436295,279.335262 180.70657,280.985084 C179.925257,282.747391 179.171143,284.519075 178.443294,286.309504 C177.924607,287.584365 177.41905,288.868602 176.926626,290.152836 C176.477349,291.333957 176.040263,292.505705 175.613494,293.696203 C175.232686,294.755462 174.861259,295.814722 174.498272,296.883355 C174.220637,297.698892 173.94957,298.514428 173.682254,299.339339 C173.126987,301.045402 172.596107,302.760842 172.089614,304.485654 C171.440552,306.697912 170.831822,308.910173 170.262486,311.14118 C169.676266,313.437807 169.132253,315.743804 168.631388,318.068554 C167.935429,321.283828 167.322948,324.527225 166.793005,327.779996 C166.701085,328.342437 166.611979,328.914248 166.524751,329.476689 C166.485357,329.729786 166.446901,329.992257 166.408446,330.245354 C166.217104,331.529588 166.038891,332.804452 165.873814,334.088686 C165.480811,337.144605 165.160969,340.200521 164.91335,343.265813 C164.818617,344.437561 164.736078,345.609309 164.662918,346.781057 C164.630089,347.296626 164.600076,347.812194 164.571936,348.327762 C164.546612,348.805837 164.523164,349.274536 164.500653,349.743234 C164.464073,350.540023 164.430306,351.336812 164.403104,352.142974 C164.372154,353.033501 164.347768,353.924029 164.329008,354.814557 C164.292428,356.529996 164.279296,358.236062 164.288674,359.951501 C164.301806,362.632458 164.371216,365.313417 164.495962,367.994377 C164.569122,369.578578 164.66198,371.153408 164.773596,372.728236 C164.822368,373.431285 164.87677,374.134332 164.933985,374.837381 C164.959311,375.146724 164.985573,375.456065 165.012773,375.765405 C165.039037,376.065373 165.066236,376.374716 165.094376,376.684056 C165.12814,377.049642 165.163783,377.424602 165.199425,377.799561 C165.223811,378.043283 165.2482,378.287007 165.273524,378.540104 C165.329801,379.093169 165.387954,379.646233 165.44892,380.1993 C165.503322,380.696119 165.559599,381.183567 165.617752,381.680389 C165.639324,381.867867 165.661834,382.045972 165.68341,382.233453 C165.720928,382.542794 165.758446,382.852137 165.796902,383.152104 C165.867246,383.705168 165.938531,384.258233 166.01263,384.811297 C166.230233,386.432997 166.467536,388.045321 166.726409,389.657645 C166.924318,390.885636 167.134419,392.11363 167.355774,393.341621 C167.456137,393.904059 167.558373,394.457124 167.663422,395.010188 C167.81537,395.806977 167.97201,396.613139 168.134274,397.409927 C168.233696,397.897375 168.335934,398.394197 168.439108,398.881642 C168.478502,399.069123 168.517896,399.247228 168.557289,399.434709 C168.636077,399.800293 168.714867,400.165879 168.796468,400.540839 C168.945603,401.215765 169.098489,401.890692 169.255126,402.565618 C169.314217,402.828089 169.374245,403.081187 169.434274,403.334284 C169.614361,404.093576 169.799136,404.852869 169.987664,405.612161 C170.050509,405.865259 170.114289,406.118356 170.178069,406.371454 C170.226843,406.568308 170.274677,406.755786 170.323452,406.943267 C170.356281,407.074503 170.389107,407.196365 170.421936,407.3276 C170.46133,407.477585 170.501662,407.636941 170.541993,407.786926 L117.094735,354.373981 C117.134129,352.480437 117.196974,350.596266 117.28045,348.712098 C117.333914,347.49348 117.396756,346.274862 117.469917,345.056245 C117.519629,344.22196 117.572152,343.397049 117.630305,342.57214 C117.681893,341.840968 117.736295,341.109798 117.79351,340.378629 C117.846973,339.694326 117.904188,339.010026 117.963279,338.3351 C118.043942,337.416449 118.129295,336.497798 118.219339,335.588524 C118.35159,334.257417 118.49416,332.926314 118.648921,331.595207 C118.677059,331.351483 118.705199,331.117135 118.733336,330.873411 C118.854333,329.861021 118.980955,328.848632 119.115082,327.836242 C119.209815,327.114443 119.308299,326.392647 119.410538,325.670851 C119.464939,325.286518 119.519338,324.902185 119.576553,324.517852 C119.801662,322.980518 120.040841,321.443186 120.295962,319.905852 C120.630812,317.899822 120.990047,315.893789 121.376483,313.887756 C121.706641,312.172317 122.05462,310.466254 122.42136,308.760188 C122.771215,307.138491 123.138891,305.516791 123.523451,303.895093 C123.589109,303.623247 123.655702,303.342029 123.723236,303.060809 C124.056207,301.682833 124.402311,300.304859 124.760608,298.926884 C125.227709,297.136452 125.714504,295.346023 126.223812,293.564965 C126.794087,291.568308 127.389685,289.581024 128.012485,287.593741 C128.343581,286.543855 128.681244,285.493969 129.027348,284.444083 C129.220565,283.853522 129.416596,283.262961 129.614506,282.681774 C129.954982,281.678758 130.301086,280.675741 130.654692,279.672725 C131.211837,278.088524 131.785862,276.523069 132.375834,274.948239 C132.81667,273.785867 133.266885,272.614119 133.725543,271.451744 C133.945963,270.89868 134.16732,270.345615 134.391488,269.783175 C135.021791,268.227094 135.668977,266.671015 136.332109,265.124308 C136.709166,264.243153 137.089974,263.371372 137.477347,262.490218 C150.044952,261.693429 160.003178,251.232068 160.003178,238.47408 C160.003178,234.265162 158.92172,230.309342 157.021431,226.869091 C157.744591,225.781708 158.475257,224.703702 159.216236,223.625693 C159.703033,222.922644 160.19452,222.210221 160.688821,221.507174 C162.486872,218.95745 164.334635,216.435849 166.231171,213.951744 C166.85866,213.136209 167.492715,212.311297 168.13146,211.495762 C168.60325,210.895825 169.076916,210.295891 169.554333,209.705331 C170.382543,208.664818 171.218257,207.643055 172.06335,206.621291 C172.745241,205.79638 173.432759,204.971471 174.125904,204.155933 C175.247694,202.834203 176.383553,201.531219 177.532543,200.237609 C183.341274,193.685198 189.504549,187.460875 195.986728,181.583387 C198.555776,179.249267 201.174534,176.980764 203.841129,174.75913 C205.326843,173.521765 206.827566,172.303147 208.343293,171.11265 C209.491344,170.203375 210.646901,169.303472 211.811836,168.412944 C212.473092,167.906749 213.136221,167.409927 213.803105,166.913108 C215.451086,165.685115 217.114072,164.475873 218.793004,163.285376 C220.879946,161.804287 222.991272,160.370068 225.125111,158.954599 L255.469701,211.626998 C256.797838,213.932997 258.988891,215.620314 261.560753,216.313987 C264.131677,217.007663 266.873308,216.65145 269.180667,215.320347 L279.191418,209.555348 C279.881749,209.199136 280.573956,208.842925 281.268979,208.486713 C282.995745,207.614934 284.737522,206.7619 286.494304,205.946365 C287.674246,205.402674 288.860754,204.868356 290.052888,204.352788 C290.95895,203.949705 291.867825,203.565373 292.781389,203.190413 C293.360104,202.946692 293.941633,202.712341 294.523163,202.477993 C296.027637,201.868683 297.540551,201.287495 299.06097,200.725057 C300.379729,200.237609 301.705055,199.768911 303.035067,199.318959 C304.905341,198.681528 306.785934,198.072221 308.67778,197.500407 C311.842427,196.553636 315.037089,195.691229 318.253323,194.922563 C319.63211,194.594473 321.015586,194.285132 322.402817,193.994539 C324.905269,193.460221 327.420854,192.991522 329.944881,192.579067 C332.331028,192.18536 334.724677,191.847897 337.124894,191.557303 C343.3754,190.816758 349.66905,190.413678 355.964576,190.357435 C356.579874,190.357435 357.194231,190.357435 357.809526,190.357435 C358.534562,190.357435 359.258661,190.366809 359.982759,190.376182 C360.63651,190.385555 361.290264,190.394929 361.943077,190.413678 C362.8754,190.441801 363.807724,190.469921 364.740047,190.507417 C366.764145,190.601157 368.787305,190.723019 370.806713,190.882377 C372.654477,191.022986 374.499425,191.201093 376.340623,191.407321 C378.76335,191.679165 381.180451,191.997882 383.589108,192.372839 C387.821143,193.038392 392.027853,193.863303 396.197044,194.838197 C397.832831,195.22253 399.462053,195.634986 401.085645,196.075562 C402.52071,196.450521 403.951085,196.853603 405.375833,197.284806 C407.079151,197.781627 408.773091,198.315945 410.459528,198.878383 C411.355269,199.168977 412.250074,199.478317 413.141128,199.78766 C414.103467,200.125123 415.06299,200.47196 416.0197,200.82817 C417.37879,201.334365 418.731315,201.849936 420.077276,202.393627 C422.398705,203.321651 424.698559,204.305918 426.974968,205.337055 C429.969845,206.696284 432.92439,208.139876 435.833913,209.67721 L405.359887,261.093495 C390.847911,254.184872 374.611979,250.313417 357.478431,250.313417 C318.980235,250.313417 285.010465,269.848794 264.955197,299.526818 Z M337.984995,120.061951 C334.333553,120.352542 330.688676,120.727502 327.055053,121.186827 C316.209526,122.555429 305.457794,124.664575 294.901158,127.50489 C290.975833,128.564152 287.075832,129.71715 283.2096,130.973264 C277.243294,132.904305 271.352962,135.079067 265.557363,137.478806 C263.040841,138.519318 260.543077,139.606701 258.063135,140.731579 C257.301519,141.078416 256.541778,141.425253 255.782975,141.781465 C253.535645,142.831351 251.304259,143.918731 249.090695,145.034236 C247.348921,145.91539 245.618401,146.824665 243.899138,147.743316 L267.22879,188.238914 C268.671359,187.479621 270.124245,186.729702 271.586511,186.007906 C272.538531,185.529834 273.494303,185.070509 274.453826,184.611184 C278.365081,182.745762 282.339181,181.011576 286.367679,179.417999 C288.711619,178.489975 291.07338,177.608821 293.452962,176.774536 C294.67136,176.343333 295.894448,175.930878 297.122225,175.527795 C297.715947,175.330943 298.31061,175.143462 298.906208,174.955984 C299.781317,174.674764 300.658301,174.402919 301.538099,174.140446 C304.668041,173.193675 307.822368,172.321894 310.996396,171.543855 C314.227636,170.747066 317.478575,170.034644 320.746395,169.406587 C323.846324,168.806653 326.962196,168.281708 330.088386,167.841132 C334.228501,167.259945 338.387376,166.80062 342.556568,166.481903 C345.703394,166.247555 348.854908,166.078824 352.009238,165.994458 C353.066308,165.966335 354.124318,165.947588 355.182325,165.938212 C355.869843,165.928839 356.557361,165.919465 357.245819,165.919465 C357.463423,165.919465 357.680089,165.919465 357.897695,165.919465 C358.180956,165.919465 358.464215,165.928839 358.746539,165.928839 C359.370277,165.928839 359.993077,165.938212 360.616813,165.947588 C362.477709,165.975708 364.338604,166.031954 366.19856,166.11632 C367.658013,166.181936 369.116525,166.266302 370.574102,166.369417 C373.306352,166.547522 376.035789,166.791246 378.758661,167.091213 C380.679585,167.306815 382.597694,167.541165 384.512053,167.81301 C386.47706,168.09423 388.439254,168.394197 390.39488,168.73166 C391.582325,168.937888 392.767897,169.153489 393.950653,169.378464 C396.822657,169.931528 399.681532,170.550212 402.525399,171.234512 C405.315805,171.900065 408.092138,172.631235 410.849714,173.428023 C412.297911,173.840479 413.741418,174.271681 415.179296,174.721633 C416.091922,175.012227 417.002673,175.302821 417.910608,175.602788 C419.093364,175.996494 420.270493,176.399576 421.444809,176.812032 C422.092933,177.037007 422.740119,177.271357 423.385428,177.505705 C424.52879,177.918161 425.667463,178.349364 426.802385,178.780569 C428.58918,179.474242 430.365661,180.186665 432.131821,180.92721 C433.55188,181.527144 434.964434,182.136452 436.369482,182.773882 C437.424679,183.242584 438.474246,183.730029 439.520062,184.217477 C441.289973,185.051762 443.047695,185.914167 444.791345,186.795321 C446.405559,187.620233 448.008517,188.463891 449.598343,189.326296 C450.410609,189.766874 451.219122,190.216824 452.023884,190.676149 C452.762052,191.088605 453.498344,191.510434 454.230883,191.932263 C456.834636,193.450848 459.402744,195.016302 461.933336,196.647375 C466.046251,199.300212 470.057867,202.112407 473.957868,205.06521 C474.8583,205.74951 475.752168,206.443186 476.63853,207.13686 C478.880234,208.899169 481.08442,210.71772 483.251085,212.573768 C484.31097,213.483046 485.352094,214.401696 486.393221,215.339094 C486.937234,215.826542 487.471865,216.313987 488.015876,216.810809 C489.244593,217.935687 490.463929,219.088686 491.664506,220.25106 C492.583698,221.141588 493.502889,222.041489 494.403322,222.950767 C494.928575,223.475708 495.444448,224.010026 495.960321,224.544344 C497.442284,226.062929 498.896107,227.609636 500.321793,229.184464 C501.766236,230.768668 503.182544,232.371618 504.561331,234.002689 C505.949499,235.633762 507.309527,237.283582 508.641417,238.961525 C510.395386,241.155037 512.093077,243.39542 513.743871,245.673297 C514.447332,246.638817 515.141418,247.604338 515.826122,248.588605 C516.126264,249.010434 516.417031,249.441636 516.717174,249.872839 C517.345601,250.782116 517.96465,251.700767 518.574318,252.619417 C519.230883,253.622434 519.88745,254.625448 520.534636,255.637837 C520.919195,256.247147 521.303755,256.856455 521.678936,257.475139 C522.626265,258.993723 523.545459,260.531057 524.445891,262.077762 C525.196251,263.361999 525.927854,264.655609 526.640696,265.949217 C526.781388,266.202314 526.922082,266.455412 527.053395,266.708509 C527.512991,267.53342 527.953827,268.377079 528.394664,269.211363 C528.966814,270.298746 529.529583,271.386128 530.082974,272.482883 C530.270565,272.867216 530.467536,273.242176 530.655124,273.626509 C530.945891,274.217069 531.236655,274.80763 531.518041,275.407564 C531.836943,276.054368 532.146468,276.710548 532.446611,277.357352 C532.634201,277.75106 532.812414,278.144767 532.990624,278.538473 C533.196973,278.979052 533.393942,279.419627 533.590911,279.850832 C534.200579,281.219432 534.800869,282.578659 535.382397,283.956635 C535.89827,285.175253 536.404765,286.403244 536.8925,287.631235 C537.126987,288.221795 537.352096,288.802983 537.577205,289.38417 C537.858588,290.11534 538.139974,290.846512 538.411979,291.587055 C538.77778,292.561951 539.134202,293.536845 539.481243,294.521112 C539.715733,295.177291 539.95022,295.842844 540.175328,296.508395 C540.306642,296.892728 540.437955,297.277063 540.569266,297.661396 C540.728719,298.148842 540.88817,298.626916 541.047623,299.114362 C541.385284,300.154875 541.713566,301.204761 542.041851,302.254647 C543.073597,305.629279 544.020925,309.032035 544.874461,312.462911 C545.090192,313.353441 545.30592,314.234593 545.512269,315.125123 C545.606065,315.528203 545.69986,315.940659 545.793653,316.353114 C546.05628,317.515487 546.309528,318.677861 546.544015,319.840236 C546.900435,321.555672 547.228719,323.271112 547.538243,324.995924 C547.735212,326.102053 547.913424,327.208185 548.091634,328.314314 C548.401157,330.235981 548.682543,332.167019 548.926411,334.098059 C549.198416,336.169711 549.423524,338.24136 549.629874,340.31301 C550.145747,345.749918 550.436511,351.205576 550.502167,356.661232 C550.530306,359.229702 550.511547,361.7888 550.445889,364.347897 C550.370856,366.906994 550.24892,369.456716 550.080089,372.00644 C550.014433,372.981333 549.939397,373.946854 549.864361,374.921747 C549.789325,375.784155 549.714289,376.655933 549.629874,377.518341 C549.526698,378.596347 549.414144,379.674356 549.292211,380.742989 C549.254693,381.108575 549.207796,381.464787 549.170278,381.830371 C549.038965,382.917753 548.898271,384.005135 548.748198,385.083144 C548.682543,385.617459 548.607507,386.151777 548.523092,386.686095 C548.232325,388.757744 547.894665,390.82002 547.528862,392.872922 C547.191201,394.785214 546.81602,396.697505 546.42208,398.600425 C546.328285,399.031627 546.24387,399.453456 546.150075,399.884659 C545.953106,400.803309 545.737376,401.731333 545.531028,402.649984 C545.315298,403.568635 545.090192,404.487285 544.865083,405.405933 C544.743148,405.893381 544.621215,406.390203 544.489902,406.887024 C544.424246,407.168242 544.34921,407.449462 544.274174,407.730683 L544.264793,407.786926 C562.076481,389.985735 579.888171,372.175171 597.699859,354.373981 C597.699859,354.186503 597.690478,353.999022 597.690478,353.811543 C597.6811,353.267852 597.662341,352.733534 597.643582,352.199217 C597.615442,351.12121 597.577924,350.043202 597.531028,348.965195 C597.512269,348.665226 597.502888,348.374635 597.49351,348.074665 C597.446613,347.118521 597.390336,346.162374 597.334059,345.206227 C597.324678,344.95313 597.305919,344.690659 597.28716,344.437561 C597.221504,343.247066 597.137087,342.056569 597.043292,340.875448 C596.911979,339.197505 596.771287,337.519564 596.602456,335.850995 C596.461764,334.435523 596.311691,333.020053 596.152241,331.604581 C595.880233,329.307957 595.580091,327.01133 595.251806,324.72408 C594.904764,322.333714 594.520205,319.952722 594.107506,317.581106 C593.816741,315.978155 593.525977,314.384578 593.207073,312.791001 C593.094519,312.219189 592.981965,311.647375 592.860032,311.084937 C592.766237,310.597489 592.663063,310.119417 592.559887,309.641343 C592.381677,308.769564 592.194087,307.897783 591.997118,307.026002 C591.818905,306.238587 591.640696,305.460548 591.462486,304.673133 C591.415587,304.504401 591.378069,304.326296 591.340551,304.157564 C591.218618,303.679492 591.106064,303.201418 590.993509,302.723345 C590.880955,302.245273 590.759022,301.767199 590.637087,301.289126 C590.496396,300.726689 590.355704,300.164248 590.21501,299.611184 C590.0368,298.91751 589.85859,298.223834 589.670999,297.530161 C589.164505,295.636617 588.639254,293.752446 588.085863,291.868275 C587.682542,290.518422 587.279223,289.168569 586.857146,287.828089 C586.557001,286.853195 586.247477,285.887675 585.928573,284.912782 C585.581532,283.853522 585.225112,282.794263 584.85931,281.735001 C584.596685,280.956962 584.324678,280.17892 584.052672,279.400881 C583.630595,278.229133 583.208517,277.057385 582.767681,275.885636 C581.238819,271.770461 579.597405,267.692779 577.834058,263.67134 C577.665227,263.277633 577.487017,262.874551 577.318185,262.480845 C564.824679,261.59969 554.957434,251.175822 554.957434,238.47408 C554.957434,225.191148 565.743871,214.401696 579.044014,214.401696 C592.334778,214.401696 603.121215,225.191148 603.121215,238.47408 C603.121215,243.170443 601.770565,247.557466 599.435068,251.269564 C599.585141,251.588278 599.725833,251.916368 599.875905,252.244458 C600.35426,253.322464 600.823236,254.400473 601.29221,255.487855 C602.614723,258.590644 603.880955,261.712179 605.090911,264.852461 C606.385284,268.255217 607.623379,271.686095 608.786438,275.13572 C609.292933,276.654305 609.790047,278.17289 610.268401,279.691474 C610.624823,280.806977 610.962484,281.922482 611.300147,283.037984 C612.163061,285.887675 612.969701,288.756113 613.73882,291.633927 C614.057724,292.861918 614.376625,294.099282 614.686151,295.33665 C614.826843,295.899087 614.967534,296.470899 615.108229,297.033339 C615.173884,297.314557 615.239542,297.595777 615.305197,297.876998 C615.361475,298.092599 615.408374,298.3082 615.45527,298.523801 C615.511547,298.730029 615.558443,298.94563 615.605342,299.161232 C615.689757,299.508071 615.774174,299.864281 615.858588,300.220494 C616.083697,301.232883 616.308806,302.245273 616.533915,303.257663 C616.927852,305.066841 617.293653,306.87602 617.650075,308.694572 C617.912702,310.016302 618.156569,311.338035 618.391056,312.669139 C619.057002,316.390611 619.63853,320.121454 620.145025,323.871046 C620.351374,325.380257 620.538965,326.898842 620.717175,328.408053 C620.764071,328.792386 620.81097,329.167346 620.848488,329.542305 C620.876625,329.795402 620.904765,330.0485 620.932903,330.301597 C620.961042,330.554695 620.98918,330.798419 621.01732,331.051516 L621.01732,331.070263 C627.432903,324.667834 633.839108,318.256032 640.245313,311.853603 C644.634923,307.466581 649.024535,303.079556 653.404764,298.701906 C654.108227,297.99886 654.811691,297.29581 655.515154,296.592761 C655.97475,296.133436 656.443727,295.664737 656.903322,295.205412 C656.94084,295.167915 656.968978,295.139795 656.997118,295.102299 C657.062773,295.03668 657.128431,294.971063 657.194086,294.905444 C657.316022,294.764836 657.447332,294.624227 657.569268,294.483615 C657.606786,294.427372 657.644304,294.380503 657.6912,294.333633 C657.803755,294.193022 657.916309,294.043039 658.028863,293.902428 C658.178936,293.696203 658.319627,293.489975 658.460322,293.274374 C658.516596,293.199381 658.572873,293.115015 658.619772,293.03065 C658.722946,292.861918 658.826122,292.693186 658.919917,292.524455 C658.985573,292.411966 659.04185,292.290104 659.107505,292.177616 C659.257578,291.877648 659.398272,291.577681 659.529585,291.268341 C659.585863,291.118356 659.651518,290.959 659.707795,290.799642 C659.745313,290.715276 659.773451,290.621535 659.801591,290.527795 C659.857868,290.377813 659.904764,290.218455 659.951663,290.06847 C660.036078,289.796626 660.101736,289.524779 660.167391,289.252935 C660.223668,289.009211 660.270565,288.756113 660.308083,288.503016 C660.326842,288.428023 660.336223,288.353033 660.345601,288.268668 C660.373741,288.071813 660.401878,287.865585 660.420637,287.668731 C660.430018,287.509375 660.439396,287.350017 660.448777,287.190659 C660.467536,286.909439 660.476914,286.628221 660.467536,286.347001 C660.467536,286.281382 660.467536,286.206392 660.467536,286.140773 C660.448777,285.75644 660.420637,285.362733 660.373741,284.978398 C660.317463,284.594065 660.251806,284.209732 660.167391,283.825399 C660.120495,283.619172 660.064217,283.40357 660.00794,283.197342 C659.989181,283.141099 659.970422,283.07548 659.951663,283.009864 C659.895386,282.822383 659.839109,282.634905 659.773451,282.447424 C659.689036,282.147456 659.595241,281.847489 659.501446,281.547522 C659.163783,280.469513 658.816741,279.382131 658.4697,278.304125 C658.047622,276.982392 657.606786,275.670035 657.165949,274.357678 C656.406208,272.089175 655.618328,269.830047 654.802313,267.58029 C654.277059,266.108575 653.733049,264.63686 653.189036,263.165145 C652.841995,262.25587 652.504332,261.355966 652.147909,260.446692 C651.829008,259.612407 651.510104,258.778122 651.181822,257.943837 C650.797262,256.968944 650.4127,255.984677 650.018763,255.019156 C649.681099,254.175498 649.343436,253.341213 649.005776,252.516302 C648.480522,251.232068 647.94589,249.947831 647.411258,248.672971 C647.054836,247.848059 646.707795,247.013777 646.351373,246.188866 C646.05123,245.49519 645.751085,244.81089 645.45094,244.117216 C644.597404,242.186176 643.73449,240.255135 642.862195,238.333469 C642.458877,237.452314 642.04618,236.561786 641.633481,235.680632 C640.432903,233.102788 639.194808,230.534317 637.937953,227.97522 C637.290767,226.662863 636.634203,225.359879 635.968257,224.056896 C635.386726,222.903897 634.795817,221.750896 634.19553,220.597897 C633.754693,219.763612 633.313857,218.929328 632.87302,218.095045 C632.629152,217.626344 632.375904,217.157645 632.122658,216.688947 C631.578647,215.667183 631.025256,214.654794 630.471865,213.63303 C629.393221,211.673867 628.305198,209.72408 627.198416,207.793039 C626.588748,206.724404 625.97908,205.665145 625.360033,204.605885 C624.112557,202.468617 622.836943,200.340725 621.542571,198.222203 C620.44517,196.431774 619.338388,194.650719 618.212847,192.879034 C615.999283,189.401288 613.729441,185.961037 611.393942,182.567657 C610.756137,181.630257 610.118329,180.702233 609.461764,179.783582 C609.095961,179.249267 608.720783,178.724323 608.345601,178.190008 C607.623379,177.168242 606.891778,176.146479 606.150797,175.134089 C605.784996,174.618521 605.409815,174.112326 605.034634,173.606131 C604.406209,172.743723 603.768401,171.890692 603.130596,171.028284 C602.417751,170.07214 601.695529,169.125366 600.963928,168.16922 C600.588747,167.672401 600.204187,167.175579 599.819628,166.678758 C599.088027,165.731987 598.347046,164.794587 597.606064,163.857189 C596.911979,162.976035 596.199137,162.085507 595.486295,161.204353 C593.966814,159.329556 592.428574,157.464134 590.871577,155.617459 L548.94517,196.403651 C544.677492,200.546952 537.867969,200.462587 533.703465,196.225546 C533.675328,196.197424 533.647188,196.169303 533.60967,196.150554 C533.450219,196.019318 533.309528,195.869336 533.159455,195.728725 C533.159455,195.719351 532.971865,195.522497 532.971865,195.522497 C532.906209,195.45688 532.849932,195.391262 532.784274,195.325645 C532.634201,195.156913 532.474751,194.997555 532.324678,194.828824 C531.958878,194.444491 531.602456,194.069531 531.236655,193.685198 L527.991346,190.357435 C527.794374,190.151207 527.597405,189.954353 527.391056,189.757498 C525.505774,187.863954 523.582977,185.998533 521.622659,184.170608 C520.206351,182.848875 518.780668,181.536518 517.326842,180.242908 C516.210681,179.249267 515.07576,178.255624 513.93146,177.280731 C512.683986,176.202722 511.417753,175.134089 510.14214,174.084203 C509.232327,173.334284 508.313135,172.593741 507.393941,171.853195 C504.898994,169.865912 502.375904,167.916122 499.805921,166.031954 C498.83983,165.310158 497.854981,164.607108 496.879512,163.904059 C495.932181,163.229133 494.984852,162.563579 494.02814,161.898026 C493.165226,161.307466 492.292931,160.707531 491.420639,160.126344 C489.629152,158.917102 487.809526,157.726605 485.980522,156.564233 C484.761185,155.786191 483.532471,155.026899 482.294375,154.267606 C479.696252,152.692779 477.069988,151.155444 474.419339,149.674356 C472.701013,148.708836 470.970493,147.771438 469.229657,146.852788 C468.619989,146.534071 468.008445,146.215357 467.395963,145.906017 C466.175689,145.268584 464.949786,144.649903 463.719195,144.040593 C462.027131,143.206308 460.325689,142.390773 458.614866,141.593984 C455.554333,140.169139 452.462845,138.809912 449.343221,137.516302 C447.20188,136.635148 445.047407,135.772743 442.880739,134.947831 C438.165661,133.157402 433.394302,131.50758 428.574174,130.017118 C425.629945,129.098467 422.668835,128.245435 419.691779,127.448647 C414.245097,125.986305 408.746829,124.720818 403.211041,123.652185 C399.619628,122.958509 396.012269,122.349201 392.392716,121.824257 C387.477853,121.102461 382.540479,120.540023 377.590913,120.127567 C377.34517,120.108821 377.099426,120.090071 376.853683,120.071324 C372.4697,126.042551 365.394736,129.923378 357.420278,129.923378 C349.443941,129.923378 342.368978,126.042551 337.984995,120.061951 Z M497.66739,82.1254475 C495.575761,81.0943109 493.474749,80.1006679 491.354981,79.1257742 C489.591634,78.3102388 487.818907,77.5228237 486.046179,76.7541579 C485.155125,76.3604491 484.264071,75.9854896 483.363639,75.6011567 C480.568547,74.4200352 477.745312,73.2857834 474.912702,72.1984036 C473.683985,71.720329 472.452456,71.2610037 471.217174,70.8016784 C470.158229,70.4173455 469.096468,70.0330126 468.032831,69.6580531 C466.319194,69.0487456 464.598993,68.4581848 462.874102,67.8769975 C460.181243,66.9770938 457.473379,66.1240622 454.755199,65.2991533 C449.648993,63.7618192 444.501518,62.3650965 439.321215,61.1089826 C434.181245,59.8528688 429.008444,58.7467397 423.810321,57.7624726 C421.184996,57.2656511 418.553105,56.7969524 415.916526,56.3657474 C413.905558,56.03766 411.890841,55.728317 409.874246,55.4377234 C405.844807,54.8565386 401.804117,54.3597171 397.755919,53.9191386 C391.292499,53.2348387 384.809382,52.7286438 378.316887,52.4005539 C373.151591,52.138083 367.980668,51.9880982 362.808804,51.9412286 C360.613062,51.9131083 358.416381,51.9131083 356.220638,51.9318552 C350.72706,51.9787248 345.233482,52.138083 339.746468,52.4193032 C337.568547,52.5317893 335.392498,52.6630248 333.21739,52.822383 C328.285646,53.1692197 323.360464,53.6191716 318.448416,54.1722361 C312.38175,54.8565386 306.33384,55.7095702 300.315011,56.7313335 C298.897765,56.9750575 297.482398,57.2281549 296.068906,57.4812524 C290.6241,58.4842688 285.205558,59.6278941 279.821721,60.9215041 C271.964506,62.796299 264.181389,64.9898103 256.502384,67.5114115 C252.825616,68.7112823 249.173234,69.986143 245.547116,71.3359961 C243.897262,71.9546796 242.253972,72.5827365 240.615372,73.2295403 C239.859383,73.520134 239.104331,73.8201011 238.351158,74.1294416 C236.089757,75.0387187 233.839613,75.9854896 231.601663,76.9510098 C226.703683,79.0789046 221.865731,81.3380349 217.096251,83.737774 C216.100148,96.1114292 205.725473,105.860368 193.091273,105.860368 C189.614289,105.860368 186.308949,105.119825 183.323452,103.788719 C180.336078,105.860368 177.388097,107.978889 174.481388,110.163025 C173.013495,111.25978 171.554983,112.375285 170.108662,113.500164 C169.538387,113.950113 168.969051,114.390692 168.40159,114.840644 C167.005919,115.946773 165.620565,117.062275 164.245529,118.196527 C162.568473,119.565129 160.907362,120.961852 159.261259,122.377324 C158.53341,123.005381 157.808374,123.633436 157.087089,124.261493 C154.746901,126.314395 152.437666,128.39542 150.161257,130.513939 C148.842499,131.751304 147.534059,132.988671 146.236873,134.235409 C145.140407,135.294668 144.052384,136.363303 142.970926,137.44131 C142.514143,137.891262 142.059239,138.350587 141.604333,138.800539 C140.501302,139.916041 139.404836,141.031546 138.318689,142.156422 C137.294448,143.225057 136.277708,144.29369 135.268472,145.362326 C134.798561,145.868521 134.329584,146.374716 133.861548,146.88091 C132.134779,148.736959 130.431461,150.630503 128.748775,152.53342 C127.897118,153.498941 127.051084,154.464461 126.211618,155.439354 C125.679802,156.058038 125.149859,156.676719 124.62273,157.295402 C124.478285,157.464134 124.333842,157.632866 124.190334,157.801597 C123.424966,158.710875 122.664288,159.620149 121.908301,160.529426 C121.010682,161.616809 120.119628,162.704191 119.236079,163.800946 C118.862774,164.260272 118.492284,164.719597 118.12273,165.188296 C117.567463,165.881969 117.015948,166.575645 116.467246,167.278692 C116.100508,167.747391 115.735645,168.206716 115.372658,168.675415 C114.735791,169.500326 114.102672,170.315861 113.473307,171.140773 C112.573812,172.321894 111.682758,173.503016 110.798271,174.693511 C109.932544,175.865259 109.074319,177.037007 108.223596,178.208755 C107.441345,179.286763 106.66566,180.374143 105.89654,181.461525 C105.588892,181.902104 105.281244,182.333306 104.975472,182.773882 C104.516814,183.430062 104.060032,184.086242 103.606064,184.742419 C102.860393,185.820428 102.120349,186.90781 101.385934,187.99519 C100.120638,189.869987 98.8741011,191.763531 97.6444474,193.657076 C96.8293682,194.922563 96.0217923,196.178677 95.2217201,197.453537 C94.6908399,198.297196 94.1637116,199.140854 93.639397,199.984512 L93.4958904,200.218863 C92.9734517,201.062521 92.4528889,201.915552 91.9370161,202.759211 C91.0497143,204.221552 90.1717923,205.693267 89.3051256,207.164983 C88.9571459,207.755543 88.6101041,208.346104 88.2649381,208.936665 C87.713423,209.892812 87.1647217,210.839582 86.62071,211.795729 C86.1779972,212.573768 85.7399743,213.35181 85.3028889,214.129849 C84.3508688,215.826542 83.4110419,217.532605 82.4843464,219.238671 C81.5979828,220.879117 80.7228745,222.528938 79.8590217,224.178758 C79.2484157,225.350506 78.6415615,226.522254 78.0422107,227.694002 C77.6013738,228.56578 77.1633507,229.428188 76.7290796,230.299966 C76.6174633,230.524944 76.505847,230.740545 76.394231,230.965519 C75.4778529,232.802821 74.5764822,234.649495 73.6891804,236.505543 C73.0588776,237.8179 72.436078,239.13963 71.8207822,240.461363 C71.3480549,241.483127 70.8781416,242.50489 70.4129179,243.526656 C69.854837,244.754647 69.3042598,245.982638 68.7593105,247.210629 C68.6223696,247.519972 68.4873046,247.829312 68.3522396,248.138653 C68.0811719,248.747963 67.81198,249.366644 67.544664,249.985327 C67.009094,251.222694 66.4800895,252.460059 65.9576509,253.706799 C65.7184735,254.269237 65.4802339,254.841049 65.2429322,255.412863 C64.7608254,256.575237 64.2834085,257.737609 63.8116193,258.909357 C63.4833362,259.715519 63.1597433,260.531057 62.8370883,261.346593 C62.7367274,261.59969 62.6363666,261.852788 62.5369438,262.105885 C62.4562801,262.312113 62.3765542,262.518341 62.2958905,262.724569 C62.0970448,263.230764 61.8991373,263.736959 61.7021674,264.252527 C61.6046206,264.505624 61.5061356,264.758722 61.4085888,265.011819 C60.96869,266.155444 60.5344186,267.308446 60.1067131,268.461444 C59.8966119,269.023882 59.6883868,269.586323 59.4810996,270.148761 C59.3329035,270.551843 59.1865831,270.964299 59.0393249,271.367378 L58.9520954,271.611102 C58.8348514,271.929816 58.7185455,272.257906 58.6022395,272.576623 C58.3424272,273.307792 58.0844908,274.029588 57.8284302,274.760761 C57.2816048,276.316841 56.7469726,277.882296 56.2235961,279.44775 C55.9403348,280.291408 55.6617634,281.14444 55.386006,281.988098 C55.3203493,282.194326 55.2556306,282.400554 55.1899742,282.597408 C55.1430765,282.747391 55.0961791,282.888002 55.0502196,283.037984 C55.0352123,283.084854 55.0211429,283.131726 55.0070737,283.178596 C54.9808111,283.262961 54.9545484,283.347327 54.9310997,283.441067 C54.868257,283.666041 54.8110419,283.900392 54.7613306,284.125366 C54.7069293,284.387837 54.6600319,284.640935 54.6206379,284.903408 C54.5765542,285.203375 54.5427879,285.512716 54.5202773,285.812683 C54.4987042,286.103277 54.4893247,286.384497 54.4883869,286.67509 C54.486511,287.265651 54.5277809,287.865585 54.6121964,288.446773 C54.6365832,288.615504 54.6647215,288.784236 54.6956741,288.952968 C54.7041156,288.999837 54.712557,289.046707 54.7209987,289.084203 C54.736006,289.168569 54.7528891,289.243561 54.769772,289.318554 C54.7885311,289.402919 54.8072901,289.487285 54.8279251,289.571651 C54.8701329,289.749756 54.9142165,289.918488 54.9639279,290.096593 C55.019267,290.284071 55.079296,290.480926 55.1440146,290.668407 C55.1927879,290.809016 55.2453133,290.959 55.2987765,291.099609 C55.4760492,291.558934 55.6814605,292.01826 55.9131343,292.449462 C55.9947361,292.608821 56.0800897,292.758803 56.168257,292.908788 C56.1898298,292.946284 56.2114028,292.98378 56.2329756,293.021276 C56.3286466,293.180632 56.4290074,293.33999 56.532182,293.499348 C56.664433,293.696203 56.8032498,293.893055 56.9476943,294.089909 C57.0724416,294.249267 57.2009411,294.417999 57.3341299,294.577355 C57.5142166,294.792958 57.7018067,294.999184 57.8959626,295.205412 C57.963495,295.271031 58.0319654,295.346023 58.1004358,295.411639 L93.7800895,331.070263 C93.8016625,330.864038 93.8251112,330.648434 93.8476221,330.442206 C93.8626293,330.301597 93.8776366,330.160988 93.8935817,330.029753 C93.9620521,329.41107 94.0323985,328.792386 94.1046207,328.183078 C94.153394,327.770623 94.2031054,327.358167 94.2537549,326.945711 C94.3963235,325.783339 94.5473335,324.620965 94.7058472,323.458593 C94.9290795,321.818146 95.167319,320.187072 95.4224417,318.555999 C95.951446,315.14387 96.5479828,311.750488 97.2101761,308.375855 C97.5534661,306.622922 97.9145774,304.869987 98.2935096,303.126428 C98.4979829,302.189028 98.707146,301.25163 98.9209988,300.314233 C99.0588775,299.714299 99.1986321,299.114362 99.3412007,298.505054 C99.525039,297.727013 99.7116912,296.958347 99.9020953,296.180308 C99.9593103,295.945957 100.016525,295.711606 100.074678,295.486632 C100.161908,295.130422 100.250075,294.783582 100.338243,294.436746 C100.559599,293.555591 100.784707,292.68381 101.015443,291.812032 C101.122369,291.40895 101.230234,291.00587 101.339974,290.593414 C101.542572,289.843495 101.748921,289.084203 101.959022,288.334284 C102.104404,287.818716 102.250724,287.293771 102.399859,286.76883 C102.680306,285.793936 102.966381,284.809666 103.257146,283.834773 C103.531965,282.906749 103.812413,281.988098 104.096612,281.06945 C104.310465,280.385148 104.527131,279.700848 104.745674,279.007174 C105.111475,277.863547 105.484779,276.719921 105.865587,275.585669 C106.455558,273.813987 107.064289,272.061054 107.691778,270.308119 C107.887809,269.755054 108.086656,269.211363 108.286438,268.667672 C108.801373,267.2522 109.32944,265.846104 109.868761,264.449381 C110.258013,263.436991 110.652888,262.433975 111.054331,261.421585 C111.147188,261.187235 111.240984,260.96226 111.334779,260.727909 C111.685574,259.856131 112.041994,258.98435 112.402167,258.112569 C112.804548,257.147049 113.210682,256.181528 113.624317,255.216008 C113.877566,254.634823 114.131749,254.044263 114.387809,253.463075 C114.458156,253.303717 114.528503,253.144359 114.59791,252.985001 C114.871793,252.356944 115.148487,251.738263 115.427998,251.119579 C113.151589,247.444979 111.837522,243.1142 111.837522,238.47408 C111.837522,225.303636 122.438241,214.598548 135.568617,214.41107 C136.075112,213.63303 136.586296,212.864362 137.101231,212.095696 C137.392933,211.664494 137.68651,211.233291 137.981028,210.802086 C138.471575,210.08029 138.965875,209.358494 139.463927,208.636698 C140.559455,207.061867 141.670926,205.496413 142.799281,203.949705 C143.868544,202.477993 144.951878,201.015651 146.05022,199.572056 C148.124968,196.834854 150.252239,194.144524 152.431101,191.491687 C154.728141,188.698239 157.083337,185.951663 159.492933,183.251957 C161.569556,180.92721 163.687449,178.630584 165.844736,176.380829 C168.174606,173.943594 170.551374,171.553228 172.971288,169.209732 C175.415587,166.847489 177.90491,164.522743 180.437376,162.254239 C182.466165,160.435687 184.52403,158.645256 186.608156,156.892323 C189.257867,154.651939 191.951662,152.477177 194.687666,150.339909 C196.531678,148.90569 198.395385,147.499591 200.276915,146.112242 C203.040119,144.078089 205.841778,142.090806 208.681894,140.169139 C211.842789,138.022497 215.049643,135.941474 218.299642,133.935441 C222.416309,131.395093 226.603323,128.957858 230.853179,126.651858 C237.428213,123.070998 244.156135,119.771357 251.01162,116.762308 C252.397912,116.153 253.788893,115.553064 255.185501,114.971879 C258.566814,113.556407 261.979079,112.215927 265.416669,110.941067 C267.527059,110.163025 269.647766,109.403732 271.777853,108.681936 C274.295313,107.819531 276.824968,106.99462 279.366814,106.216581 C284.971071,104.491768 290.632543,102.954434 296.339036,101.604581 C301.655342,100.35784 307.011042,99.2610848 312.39488,98.3424367 C317.753393,97.4237861 323.139109,96.6738671 328.543581,96.0833064 C330.933482,95.8302089 333.326193,95.6052343 335.722659,95.4083798 C339.61703,87.3467549 347.873812,81.7879843 357.420278,81.7879843 C366.968619,81.7879843 375.226339,87.3561308 379.12071,95.4083798 C381.978647,95.642728 384.83283,95.9239482 387.681389,96.2426646 C391.805558,96.7113633 395.919412,97.2831747 400.017319,97.9487278 C401.336078,98.1549557 402.653899,98.3799329 403.969844,98.614281 C406.490118,99.0642328 409.004764,99.542305 411.510971,100.067249 C417.896541,101.38898 424.233337,102.954434 430.503539,104.754239 C433.628792,105.644767 436.738099,106.600914 439.828647,107.613303 C442.053467,108.3351 444.267969,109.094392 446.47309,109.881807 C448.371504,110.556734 450.261475,111.25978 452.143943,111.981579 C454.348126,112.825237 456.541055,113.697016 458.722731,114.606293 C460.312557,115.262473 461.896756,115.937399 463.47439,116.621699 C465.521936,117.5216 467.559165,118.440251 469.583263,119.387024 C471.162773,120.127567 472.73478,120.877486 474.299282,121.655526 C475.818761,122.396071 477.332615,123.164737 478.833337,123.942779 C482.725834,125.948809 486.571431,128.057957 490.360753,130.251468 C498.26768,134.854092 505.940118,139.850425 513.331172,145.240464 C517.261186,148.099528 521.097405,151.061705 524.858588,154.126998 C526.406209,155.383111 527.925688,156.657972 529.445169,157.951582 C531.649355,159.83575 533.8254,161.748044 535.963928,163.707205 C536.939397,164.597735 537.914865,165.497636 538.880956,166.406913 C539.443725,166.931855 539.997116,167.456799 540.550507,167.981741 C541.404043,168.806653 542.257579,169.622188 543.101734,170.456473 C543.298705,170.643951 543.486293,170.831432 543.683265,171.028284 L576.173885,139.41922 C576.070709,139.316107 575.976914,139.212994 575.87374,139.109879 C575.395385,138.622434 574.917031,138.144359 574.438676,137.656913 C574.101013,137.310074 573.76335,136.963238 573.416308,136.625774 C572.422081,135.622758 571.418472,134.638491 570.405486,133.654221 C569.317463,132.585588 568.220062,131.535702 567.11328,130.49519 C565.584418,129.051597 564.055558,127.636128 562.498561,126.230029 C559.253249,123.286599 555.932903,120.418161 552.55628,117.624716 C551.149353,116.462341 549.733048,115.318716 548.307362,114.184464 C546.553393,112.787741 544.780666,111.409765 542.98918,110.059912 C540.175328,107.922644 537.323956,105.841621 534.425688,103.826215 C534.012991,103.535621 533.60967,103.254401 533.196973,102.963807 C529.79221,104.810482 525.890336,105.860368 521.753972,105.860368 C508.566381,105.860368 497.845603,95.2490216 497.66739,82.1254475 Z M135.92035,225.041165 C143.341418,225.041165 149.365877,231.059261 149.365877,238.47408 C149.365877,245.888899 143.341418,251.906994 135.92035,251.906994 C128.499281,251.906994 122.474822,245.888899 122.474822,238.47408 C122.474822,231.059261 128.499281,225.041165 135.92035,225.041165 Z M579.044014,225.041165 C586.463205,225.041165 592.484851,231.059261 592.484851,238.47408 C592.484851,245.888899 586.463205,251.906994 579.044014,251.906994 C571.615444,251.906994 565.593798,245.888899 565.593798,238.47408 C565.593798,231.059261 571.615444,225.041165 579.044014,225.041165 Z M357.420278,92.41808 C364.841345,92.41808 370.865804,98.4361759 370.865804,105.860368 C370.865804,113.275187 364.841345,119.293283 357.420278,119.293283 C350.000148,119.293283 343.974752,113.275187 343.974752,105.860368 C343.974752,98.4361759 350.000148,92.41808 357.420278,92.41808 Z M521.753972,68.3456962 C529.173164,68.3456962 535.194809,74.3731656 535.194809,81.7879843 C535.194809,89.2028029 529.173164,95.2208989 521.753972,95.2208989 C514.3254,95.2208989 508.303754,89.2028029 508.303754,81.7879843 C508.303754,74.3731656 514.3254,68.3456962 521.753972,68.3456962 Z M193.091273,68.3456962 C200.511402,68.3456962 206.536799,74.3731656 206.536799,81.7879843 C206.536799,89.2028029 200.511402,95.2208989 193.091273,95.2208989 C185.670205,95.2208989 179.645746,89.2028029 179.645746,81.7879843 C179.645746,74.3731656 185.670205,68.3456962 193.091273,68.3456962 Z M357.387449,450.943756 C309.062533,450.943756 269.887449,411.768672 269.887449,363.443756 C269.887449,315.118841 309.062533,275.943756 357.387449,275.943756 C405.712365,275.943756 444.887449,315.118841 444.887449,363.443756 C444.887449,411.768672 405.712365,450.943756 357.387449,450.943756 Z" id="Shape"></path>
        </g>
    </g>
</svg>